<?xml version="1.0" standalone="no"?><!DOCTYPE svg PUBLIC "-//W3C//DTD SVG 1.1//EN" "http://www.w3.org/Graphics/SVG/1.1/DTD/svg11.dtd"><svg t="1741518438112" class="icon" viewBox="0 0 1024 1024" version="1.1" xmlns="http://www.w3.org/2000/svg" p-id="1633" xmlns:xlink="http://www.w3.org/1999/xlink" width="200" height="200"><path d="M691.89 498.394L665.896 472.4l105.896-105.894 25.992 25.992zM205.328 392.488l25.994-25.994 105.894 105.896-25.992 25.992z" fill="#FFA730" p-id="1634"></path><path d="M760.892 187.292c64.664 4.654 115.274 60.054 112.212 126.58-2.858 62.074-53.242 112.456-115.318 115.312-66.522 3.058-121.918-47.548-126.572-112.212-0.342-4.756 3.384-8.826 8.154-8.826h104.53a8.168 8.168 0 0 0 8.168-8.168V195.446c0-4.77 4.068-8.496 8.826-8.154z" fill="#FF624B" p-id="1635"></path><path d="M941.132 666.808a19.98 19.98 0 0 1-16.396-8.522l-32.318-46.108h-119.274c-11.046 0-20-8.954-20-20s8.954-20 20-20h129.678c6.522 0 12.634 3.18 16.378 8.52l38.292 54.628c6.34 9.044 4.146 21.516-4.898 27.858a19.914 19.914 0 0 1-11.462 3.624zM873.74 752.58a19.974 19.974 0 0 1-16.394-8.522l-32.32-46.108h-119.274c-11.046 0-20-8.954-20-20s8.954-20 20-20h129.678a19.996 19.996 0 0 1 16.376 8.52l38.292 54.628c6.34 9.044 4.148 21.516-4.898 27.856a19.892 19.892 0 0 1-11.46 3.626zM792.052 856.732a19.974 19.974 0 0 1-16.394-8.522l-32.32-46.108h-119.274c-11.046 0-20-8.954-20-20s8.954-20 20-20h129.678a19.996 19.996 0 0 1 16.376 8.52l38.292 54.628c6.34 9.044 4.148 21.516-4.898 27.856a19.892 19.892 0 0 1-11.46 3.626zM82.868 666.808a19.914 19.914 0 0 1-11.462-3.624c-9.044-6.34-11.238-18.812-4.898-27.858L104.8 580.698a20.002 20.002 0 0 1 16.378-8.52h129.678c11.046 0 20 8.954 20 20s-8.954 20-20 20H131.582l-32.318 46.108a19.98 19.98 0 0 1-16.396 8.522zM150.26 752.58a19.902 19.902 0 0 1-11.462-3.626c-9.044-6.34-11.238-18.812-4.898-27.856l38.292-54.628a20 20 0 0 1 16.376-8.52h129.678c11.046 0 20 8.954 20 20s-8.954 20-20 20H198.974l-32.32 46.108a19.972 19.972 0 0 1-16.394 8.522zM231.948 856.732a19.902 19.902 0 0 1-11.462-3.626c-9.044-6.34-11.238-18.812-4.898-27.856l38.292-54.628a20 20 0 0 1 16.376-8.52h129.678c11.046 0 20 8.954 20 20s-8.954 20-20 20H280.66l-32.32 46.108a19.976 19.976 0 0 1-16.392 8.522z" fill="#FFA730" p-id="1636"></path><path d="M205.156 608.52a296.402 213.686 0 1 0 592.804 0 296.402 213.686 0 1 0-592.804 0Z" fill="#FF624B" p-id="1637"></path><path d="M583.246 801.784c-163.698 0-296.402-95.672-296.402-213.686 0-82.392 64.688-153.88 159.438-189.538-137.278 18.67-241.126 105.566-241.126 209.96 0 118.014 132.704 213.686 296.402 213.686 49.414 0 95.996-8.73 136.964-24.148a410.252 410.252 0 0 1-55.276 3.726z" fill="#FF4B34" p-id="1638"></path><path d="M236.214 187.292c-64.664 4.654-115.274 60.054-112.212 126.58 2.858 62.074 53.242 112.456 115.318 115.312 66.522 3.058 121.918-47.548 126.572-112.212 0.342-4.756-3.384-8.826-8.154-8.826h-104.53a8.168 8.168 0 0 1-8.168-8.168V195.446c0-4.77-4.068-8.496-8.826-8.154z" fill="#FF624B" p-id="1639"></path><path d="M280.164 408.762c-62.074-2.856-112.46-53.236-115.318-115.312-1.914-41.554 17.116-78.766 47.43-101.982-52.744 14.78-90.946 64.35-88.274 122.404 2.858 62.076 53.242 112.456 115.318 115.312 29.884 1.374 57.502-8.106 79.304-24.802a121.668 121.668 0 0 1-38.46 4.38zM798.63 408.762c-62.49 2.872-115.152-41.612-125.168-100.616h-34.096c-4.77 0-8.496 4.068-8.154 8.824 4.654 64.664 60.05 115.27 126.572 112.212 25.302-1.164 48.66-10.228 67.65-24.758a119.538 119.538 0 0 1-26.804 4.338z" fill="#FF4B34" p-id="1640"></path><path d="M716.826 713.834a12 12 0 0 1-9.348-19.512c76.382-95.134-4.3-175.518-7.772-178.894a12.006 12.006 0 0 1-0.266-16.958 11.988 11.988 0 0 1 16.94-0.302c1.034 0.996 25.484 24.848 39.028 62.668 12.666 35.376 17.88 89.856-29.214 148.512a11.99 11.99 0 0 1-9.368 4.486zM844.154 326.004a12 12 0 0 1-11.994-11.768c-0.998-51.496-45.602-78.092-47.5-79.2-5.712-3.332-7.668-10.666-4.354-16.388a11.98 11.98 0 0 1 16.35-4.398c2.378 1.366 58.236 34.228 59.5 99.522a12 12 0 0 1-11.766 12.23l-0.236 0.002z" fill="#FF9079" p-id="1641"></path><path d="M381.41 666.6m-32.534 0a32.534 32.534 0 1 0 65.068 0 32.534 32.534 0 1 0-65.068 0Z" fill="#FF4B34" p-id="1642"></path><path d="M454.378 722.938m-32.534 0a32.534 32.534 0 1 0 65.068 0 32.534 32.534 0 1 0-65.068 0Z" fill="#FF4B34" p-id="1643"></path><path d="M583.246 396.018m-24.886 0a24.886 24.886 0 1 0 49.772 0 24.886 24.886 0 1 0-49.772 0Z" p-id="1644"></path><path d="M419.87 396.018m-24.886 0a24.886 24.886 0 1 0 49.772 0 24.886 24.886 0 1 0-49.772 0Z" p-id="1645"></path><path d="M287.392 398.748a12 12 0 0 1-2.928-23.638c29.228-7.378 27.204-29.886 26.502-34.324-1.164-6.524 3.192-12.702 9.716-13.866 6.526-1.156 12.768 3.238 13.93 9.762 2.982 16.72-2.434 51.134-44.276 61.696a11.948 11.948 0 0 1-2.944 0.37z" fill="#FF9079" p-id="1646"></path></svg>